<?xml version="1.0" encoding="UTF-8" standalone="no"?>
<svg
   xmlns:dc="http://purl.org/dc/elements/1.1/"
   xmlns:cc="http://creativecommons.org/ns#"
   xmlns:rdf="http://www.w3.org/1999/02/22-rdf-syntax-ns#"
   xmlns:svg="http://www.w3.org/2000/svg"
   xmlns="http://www.w3.org/2000/svg"
   xmlns:sodipodi="http://sodipodi.sourceforge.net/DTD/sodipodi-0.dtd"
   xmlns:inkscape="http://www.inkscape.org/namespaces/inkscape"
   viewBox="0 0 587.44 98.96"
   version="1.1"
   id="svg1003"
   sodipodi:docname="CharScroll.svg"
   inkscape:version="0.92.4 (5da689c313, 2019-01-14)"
   inkscape:export-filename="C:\Users\User\OneDrive\Documents\Dungeons &amp; Dragons\Stone20\CharScroll.png"
   inkscape:export-xdpi="96"
   inkscape:export-ydpi="96">
  <metadata
     id="metadata1007">
    <rdf:RDF>
      <cc:Work
         rdf:about="">
        <dc:format>image/svg+xml</dc:format>
        <dc:type
           rdf:resource="http://purl.org/dc/dcmitype/StillImage" />
        <dc:title>Asset 1</dc:title>
      </cc:Work>
    </rdf:RDF>
  </metadata>
  <sodipodi:namedview
     pagecolor="#ffffff"
     bordercolor="#666666"
     borderopacity="1"
     objecttolerance="10"
     gridtolerance="10"
     guidetolerance="10"
     inkscape:pageopacity="0"
     inkscape:pageshadow="2"
     inkscape:window-width="1920"
     inkscape:window-height="1017"
     id="namedview1005"
     showgrid="false"
     inkscape:zoom="5.2805393"
     inkscape:cx="165.63129"
     inkscape:cy="74.211038"
     inkscape:window-x="-8"
     inkscape:window-y="-8"
     inkscape:window-maximized="1"
     inkscape:current-layer="svg1003"
     showguides="true"
     inkscape:guide-bbox="true">
    <sodipodi:guide
       position="40,50"
       orientation="1,0"
       id="guide1264"
       inkscape:locked="false"
       inkscape:label=""
       inkscape:color="rgb(0,0,255)" />
    <sodipodi:guide
       position="40,50"
       orientation="0,1"
       id="guide1266"
       inkscape:locked="false"
       inkscape:label=""
       inkscape:color="rgb(0,0,255)" />
    <sodipodi:guide
       position="60,22"
       orientation="1,0"
       id="guide1268"
       inkscape:locked="false"
       inkscape:label=""
       inkscape:color="rgb(0,0,255)" />
    <sodipodi:guide
       position="60,22"
       orientation="0,1"
       id="guide1270"
       inkscape:locked="false"
       inkscape:label=""
       inkscape:color="rgb(0,0,255)" />
  </sodipodi:namedview>
  <defs
     id="defs945">
    <style
       id="style943">.cls-1{fill:#dcddde;}.cls-2{fill:#231f20;}.cls-3{fill:#fff;}.cls-4,.cls-5{fill:none;stroke:#231f20;stroke-miterlimit:10;}.cls-4{stroke-width:1.38px;}.cls-5{stroke-width:0.75px;}.cls-6{fill:#bfc0c3;}</style>
  </defs>
  <title
     id="title947">Asset 1</title>
  <g
     inkscape:groupmode="layer"
     id="layer4"
     inkscape:label="Background">
    <polygon
       class="cls-1"
       points="38.65,38.41 73.11,40.98 82.02,40.32 107.94,42.26 146.44,39.38 163.74,41.63 118.87,44.98 180.47,49.59 193.94,48.58 169.69,46.77 204.32,44.18 228.58,45.99 244.47,44.8 267.09,46.49 330.91,41.73 308.3,40.03 380.01,34.67 337.78,31.52 360.06,29.85 332.58,27.8 374.63,24.65 337.19,21.85 389.06,17.97 300.72,11.37 324.46,9.59 281.12,6.35 242.62,9.23 225.3,6.98 267.79,3.8 233.74,1.25 210.01,3.03 182.46,0.97 156.71,2.9 182.87,4.85 154.04,7.01 125.22,4.85 141.93,3.6 121.97,2.11 58.15,6.88 80.77,8.57 9.05,13.93 51.29,17.09 29,18.76 56.48,20.81 14.43,23.95 51.88,26.75 0,30.63 71.29,35.97 "
       id="polygon949"
       style="display:inline;fill:#dcddde" />
    <polygon
       class="cls-1"
       points="223.49,48.51 246.74,50.25 270,48.51 246.74,46.77 "
       id="polygon951"
       style="display:inline;fill:#dcddde" />
    <polygon
       class="cls-1"
       points="107.54,43.73 84.29,45.47 61.03,43.73 84.29,41.99 "
       id="polygon953"
       style="display:inline;fill:#dcddde" />
    <polygon
       class="cls-1"
       points="297.56,63.81 332.07,61.23 304.41,59.16 285.13,60.6 262.76,58.93 241.84,60.49 263.09,62.09 239.68,63.84 216.26,62.09 229.83,61.07 213.62,59.86 161.78,63.73 180.15,65.11 121.9,69.46 156.2,72.03 138.1,73.38 160.42,75.05 126.27,77.6 156.68,79.88 114.54,83.03 172.46,87.36 145.94,89.34 173.93,91.43 181.17,90.89 202.22,92.47 233.5,90.13 247.55,91.96 211.1,94.68 261.14,98.42 272.08,97.61 252.38,96.13 280.51,94.03 300.22,95.5 313.13,94.54 331.5,95.91 383.34,92.04 364.98,90.66 423.23,86.31 388.92,83.74 407.02,82.39 384.7,80.72 418.86,78.17 388.44,75.89 430.58,72.74 358.82,67.38 378.1,65.94 342.9,63.3 311.62,65.64 "
       id="polygon955"
       style="display:inline;fill:#dcddde" />
    <polygon
       class="cls-1"
       points="314.97,96.13 296.08,97.55 314.97,98.96 333.86,97.55 "
       id="polygon957"
       style="display:inline;fill:#dcddde" />
    <polygon
       class="cls-1"
       points="183.01,92.25 201.9,93.66 183.01,95.08 164.12,93.66 "
       id="polygon959"
       style="display:inline;fill:#dcddde" />
    <polygon
       class="cls-1"
       points="406.43,46.76 447.7,49.85 456.72,49.17 440.48,47.96 463.67,46.22 479.93,47.44 490.57,46.64 505.73,47.78 548.49,44.58 533.34,43.45 581.38,39.86 553.09,37.74 568.02,36.62 549.61,35.25 577.78,33.14 552.69,31.27 587.44,28.67 528.26,24.24 544.16,23.05 515.13,20.88 489.33,22.81 477.73,21.3 506.2,19.17 483.38,17.47 467.49,18.66 449.03,17.27 431.78,18.57 449.31,19.88 430,21.32 410.69,19.88 421.88,19.04 408.51,18.04 365.75,21.24 380.9,22.37 332.86,25.96 361.15,28.08 346.22,29.19 364.63,30.57 336.46,32.67 361.55,34.55 326.79,37.15 374.56,40.72 352.69,42.36 375.77,44.08 381.74,43.64 399.11,44.94 424.9,43.01 436.49,44.51 "
       id="polygon961"
       style="display:inline;fill:#dcddde" />
    <polygon
       class="cls-1"
       points="507.68,49.12 492.1,47.96 476.52,49.12 492.1,50.29 "
       id="polygon963"
       style="display:inline;fill:#dcddde" />
    <polygon
       class="cls-1"
       points="367.68,45.92 383.26,44.76 398.84,45.92 383.26,47.09 "
       id="polygon965"
       style="display:inline;fill:#dcddde" />
  </g>
  <g
     inkscape:groupmode="layer"
     id="layer3"
     inkscape:label="Scroll"
     style="display:inline">
    <polygon
       class="cls-3"
       points="57.35,41.09 21.85,45.73 21.85,83.23 57.35,78.59 "
       id="polygon969"
       style="display:inline;fill:#ffffff" />
    <polygon
       class="cls-4"
       points="21.85,45.73 21.85,83.23 57.35,78.59 57.35,41.09 "
       id="polygon971"
       style="display:inline;fill:none;stroke:#231f20;stroke-width:1.38px;stroke-miterlimit:10" />
    <path
       class="cls-5"
       d="M 22.63,48.24 57.35,43.82 M 22.63,80.45 57.35,75.52"
       id="path973"
       inkscape:connector-curvature="0"
       style="display:inline;fill:none;stroke:#231f20;stroke-width:0.75px;stroke-miterlimit:10" />
    <polygon
       class="cls-6"
       points="33.13,75.01 57.35,78.59 57.35,41.09 33.13,37.51 "
       id="polygon975"
       style="display:inline;fill:#bfc0c3" />
    <polygon
       class="cls-4"
       points="57.35,78.59 57.35,41.09 33.13,37.51 33.13,75.01 "
       id="polygon977"
       style="display:inline;fill:none;stroke:#231f20;stroke-width:1.38px;stroke-miterlimit:10" />
    <path
       class="cls-3"
       d="M 252.17,75 C 190.42,86.25 94.88,63.75 33.17,75 V 37.51 c 61.75,-11.25 157.29,11.25 219,0 z"
       id="path979"
       inkscape:connector-curvature="0"
       style="display:inline;fill:#ffffff" />
    <path
       class="cls-4"
       d="M 252.17,75 C 190.42,86.25 94.88,63.75 33.17,75 V 37.51 c 61.75,-11.25 157.29,11.25 219,0 z"
       id="path981"
       inkscape:connector-curvature="0"
       style="display:inline;fill:none;stroke:#231f20;stroke-width:1.38px;stroke-miterlimit:10" />
    <path
       class="cls-5"
       d="m 252.17,40.43 c 0,0 -19.87,8 -114,-0.29 C 71.66,34.25 38.45,39.41 33.32,40.31 m 219.73,31.08 c 0,0 -20.5,8.66 -114.67,0.33 C 71.87,65.83 38.66,70.99 33.53,71.89"
       id="path983"
       inkscape:connector-curvature="0"
       style="display:inline;fill:none;stroke:#231f20;stroke-width:0.75px;stroke-miterlimit:10" />
  </g>
  <g
     inkscape:groupmode="layer"
     id="layer2"
     inkscape:label="Title"
     style="display:none">
    <path
       class="cls-2"
       d="M 78.5,5 A 22.83,22.83 0 0 0 78.72,11.34 50.35,50.35 0 0 0 74.43,8.57 10,10 0 0 1 71.27,4.92 C 70.79,4.07 70.51,3.44 70.51,3.44 a 6.6,6.6 0 0 0 -1.1,7.27 14.23,14.23 0 0 0 -7.88,0.19 c 9.18,6 4.3,6.5 -1,9 -5.3,2.5 -5.68,5.63 -5.68,5.63 6.33,-2.08 8.85,0.58 8.85,0.58 -3.41,3.26 -0.37,8.35 -0.37,8.35 3.31,6.34 11.51,9 18.85,10.15 a 70.1,70.1 0 0 0 13.7,0.67 l -16.72,5.2 -15,3.79 c 0,0 -14.93,-1.62 -20.41,-14.27 -5.48,-12.65 4.09,-22.57 3.13,-23.22 -0.96,-0.65 -2.07,0.76 -2.19,0.91 C 48.85,5.78 61.38,5.91 61.88,4.69 62.38,3.47 59.41,3.34 59.41,3.34 72.08,-0.84 78.5,5 78.5,5"
       id="path967"
       inkscape:connector-curvature="0"
       style="display:inline;fill:#231f20" />
    <path
       class="cls-2"
       d="m 247.47,80 c -0.64,-3.47 -3.09,-9.12 -7.83,-12.11 -3.92,-2.46 -7.34,-1.92 -7.35,-3.15 0,-1.55 4.36,-1.07 4.36,-1.07 -4.74,-2.71 -11.53,0.61 -12.5,-0.94 -0.57,-0.94 3.16,-2.24 3.16,-2.24 -5.77,-0.21 -12.59,2.76 -15.32,5.46 6.89,-2.31 16.59,-1 21,2.83 a 20.56,20.56 0 0 0 -6,-2.19 c -7.82,-1.57 -16.52,0.76 -21.76,2.94 a 51.1,51.1 0 0 0 -10.43,5 c -3.9,2.27 -11.11,4.38 -16,2.31 v 0 c 0,0 7.65,12.75 17.06,8.32 0.69,-0.39 1.35,-0.78 2,-1.17 a 64.25,64.25 0 0 0 10.31,-7.43 52.33,52.33 0 0 1 14,-6.88 10.44,10.44 0 0 1 4.42,-0.33 c 3.72,0.51 7,2.89 8,5.74 2.87,-0.5 10.14,1.9 12.88,4.94"
       id="path985"
       inkscape:connector-curvature="0"
       style="fill:#231f20" />
    <path
       class="cls-2"
       d="m 84.53,34.28 c -0.79,-4.26 -6.67,-5 -9.7,-3 a 11.7,11.7 0 0 1 6.28,-6.19 31.28,31.28 0 0 0 -4.48,-1.29 c 1.94,-1.48 6.71,-2.6 9.13,-2.39 a 9.61,9.61 0 0 0 -1.44,-0.3 l 0.46,-2.77 c -0.27,-2.32 -2.37,-5 -4.87,-6.58 -1.24,-3.55 0,-10 1.68,-11.73 C 80.73,9.29 93.85,15 96.4,21.88 95,16 88.89,12.17 86.05,8.61 a 9.44,9.44 0 0 1 1.06,-7.52 c -0.5,6.23 6.08,11.31 9.57,14.91 4.12,4.23 5.21,7.9 4.54,10.85 a 2.52,2.52 0 0 1 1.91,2.74 5.16,5.16 0 0 0 3.15,-2.73 c 0.53,4.66 -2.35,9.47 -5.44,10.84 a 4.25,4.25 0 0 0 -0.46,-3.92 c -1.32,-1.71 -5.21,-1.85 -6.53,-1.8 0,0 1.69,-2.34 1.08,-3.57 -0.74,-1.53 -8.38,-1.1 -11.83,0 a 14.72,14.72 0 0 1 4.85,0.73 c -0.56,0.78 -2.06,4.09 -1.08,5.13 0.83,0.89 2,-0.43 2.15,-0.6 -0.11,0.32 -1.26,3.66 -0.47,4.5 0.79,0.84 2.67,0.33 2.67,0.33 -1.22,2.87 -5.72,4.72 -8.82,4.62 a 6.56,6.56 0 0 0 3.32,-3.4 8.67,8.67 0 0 1 -3.76,0.37 c 1,-0.38 3.1,-2.89 2.57,-5.81 m 10.92,-8.8 a 7.63,7.63 0 0 0 -4.29,-4.66 c 0.6,2.38 1.44,4.58 4.29,4.66"
       id="path987"
       inkscape:connector-curvature="0"
       style="fill:#231f20" />
    <path
       class="cls-2"
       d="m 68.17,16.82 c 0.51,-1.8 -3,-5 -4.31,-5.63 a 20.64,20.64 0 0 1 7.37,1 A 8.68,8.68 0 0 1 70.48,5 c 2.49,6.53 12.08,7.87 14.3,13.3 l -0.46,2.77 c -3.79,-0.49 -9.38,0.64 -12.2,3.77 a 22.42,22.42 0 0 1 4.49,0.93 c -4.27,0.64 -10.15,4.4 -11.91,6.21 0.52,-2.44 1.27,-4.49 0.74,-6 -0.75,-2.1 -3.25,-3.06 -8.3,-2.17 3.49,-3.29 10.5,-5.18 11,-7"
       id="path989"
       inkscape:connector-curvature="0"
       style="fill:#231f20" />
    <path
       class="cls-2"
       d="m 40.14,33.34 1,2.22 c -1.37,0.23 -2.91,5.64 -2.91,5.64 -3.49,-2 -0.55,-8.48 -0.55,-8.48 z"
       id="path991"
       inkscape:connector-curvature="0"
       style="fill:#231f20" />
    <path
       class="cls-2"
       d="m 32.52,32.42 a 12.49,12.49 0 0 1 2.78,-1.55 l 1.59,1.41 -0.82,0.25 c 0,0 -1.53,5 -0.91,7.07 l 1,2.9 c 0,0 -3.26,-0.65 -3.76,-1.9 0,0 -1,-5.63 0.12,-8.18"
       id="path993"
       inkscape:connector-curvature="0"
       style="fill:#231f20" />
    <path
       class="cls-2"
       d="m 30.68,34.54 c 0,0 0.21,6.42 0.87,7 l 2.42,1 0.03,2.21 c 0,0 -4.32,-1.37 -4.68,-3 C 28.96,40.12 28.72,36 28.72,36 a 4,4 0 0 1 2,-1.44"
       id="path995"
       inkscape:connector-curvature="0"
       style="fill:#231f20" />
    <path
       class="cls-2"
       d="m 185.26,24.94 a 2,2 0 0 1 -2.41,1.84 1.71,1.71 0 0 0 1.54,0.32 2.51,2.51 0 0 1 -2.5,0.77 2.12,2.12 0 0 1 -1.5,-1.88 1.18,1.18 0 0 0 0,1.59 1.56,1.56 0 0 1 -1.1,-1.27 c -0.09,-0.64 0.27,-1.37 -0.4,-2 -0.4,-0.35 -1,-0.85 -1.4,-1.16 -0.82,-0.64 -0.51,-1.12 -0.69,-1.46 -0.18,-0.34 -0.49,-0.41 -0.7,-0.65 a 0.74,0.74 0 0 1 -0.08,-0.81 0.57,0.57 0 0 0 0.44,0.6 c 0.31,0.1 0.56,0 0.82,0.17 0.26,0.17 0.17,0.66 0.39,0.84 0.22,0.18 0.71,-0.05 1.14,0.29 0.43,0.34 1.41,1.16 1.83,1.51 a 0.76,0.76 0 0 0 1.27,-0.8 1.38,1.38 0 0 1 0.21,2.16 c 0.6,0.14 1.68,-0.13 1.68,-1 a 1,1 0 0 0 -0.84,-1 2,2 0 0 1 2.31,1.86 m -12.92,-6.62 c 0.08,-0.29 -0.51,-0.8 -0.72,-0.89 a 3.39,3.39 0 0 1 1.2,0.12 1.42,1.42 0 0 1 -0.16,-1.16 c 0.43,1.05 2,1.22 2.38,2.09 a 1.65,1.65 0 0 0 -0.82,-1 2.48,2.48 0 0 1 0.22,-1.92 C 174.34,17 176.5,17.9 177,19 c -0.27,-0.94 -1.27,-1.54 -1.75,-2.1 a 1.51,1.51 0 0 1 0.14,-1.22 c -0.06,1 1,1.8 1.62,2.36 a 2,2 0 0 1 0.79,1.74 0.42,0.42 0 0 1 0.33,0.44 0.86,0.86 0 0 0 0.49,-0.46 1.81,1.81 0 0 1 -0.83,1.78 0.67,0.67 0 0 0 -0.09,-0.63 c -0.22,-0.27 -0.85,-0.28 -1.07,-0.26 0,0 0.27,-0.39 0.16,-0.59 -0.11,-0.2 -1.36,-0.13 -1.92,0.07 a 2.52,2.52 0 0 1 0.79,0.09 c -0.08,0.13 -0.31,0.68 -0.15,0.84 0.16,0.16 0.35,-0.11 0.35,-0.11 0,0 -0.19,0.6 -0.06,0.73 0.13,0.13 0.44,0 0.44,0 a 1.66,1.66 0 0 1 -1.41,0.79 1,1 0 0 0 0.52,-0.56 1.38,1.38 0 0 1 -0.6,0.07 0.93,0.93 0 0 0 0.38,-0.95 c -0.15,-0.69 -1.1,-0.78 -1.58,-0.44 a 1.86,1.86 0 0 1 1,-1 4.33,4.33 0 0 0 -0.73,-0.18 2.75,2.75 0 0 1 1.47,-0.44 2.5,2.5 0 0 0 -2.2,0.63 3.83,3.83 0 0 1 0.74,0.13 4.3,4.3 0 0 0 -1.9,1.07 2.22,2.22 0 0 0 0.09,-1 c -0.14,-0.33 -0.55,-0.48 -1.36,-0.31 0.55,-0.55 1.68,-0.89 1.75,-1.19 m 4.73,1.46 -0.08,-0.25 a 1.44,1.44 0 0 0 -0.83,-0.85 l -0.35,-0.13 0.1,0.35 c 0.09,0.31 0.25,0.88 0.9,0.88 z m -24.63,0.8 a 4.16,4.16 0 0 1 -4.36,4.13 4.11,4.11 0 1 1 0,-8.22 4.15,4.15 0 0 1 4.38,4.09 m -2.29,0 a 2,2 0 0 0 -2.24,-2.13 2,2 0 0 0 -2,2.2 2,2 0 0 0 2,2.16 2,2 0 0 0 2.05,-2.21 m -38.4,0 a 4,4 0 0 1 -0.83,2.5 3.6,3.6 0 0 1 -0.86,0.78 4.33,4.33 0 0 1 -2.68,0.73 h -4.17 l 0.18,-0.11 0.75,-0.44 c 0.23,-0.14 0.33,-0.28 0.33,-0.77 v -4.6 c 0,-0.51 -0.14,-0.65 -0.34,-0.79 A 2.49,2.49 0 0 1 103,16.22 v -0.11 l 0.1,0.06 a 2.64,2.64 0 0 0 0.72,0.31 11.62,11.62 0 0 0 2.31,0.12 h 1.6 a 4.33,4.33 0 0 1 2,0.47 3.86,3.86 0 0 1 2.06,3.49 m -2.32,0 c 0,-1.3 -0.67,-2.05 -1.84,-2.05 h -0.9 v 4.1 h 0.9 c 1.17,0 1.84,-0.75 1.84,-2.05 m 55.32,-1.12 -0.32,-0.08 v 0 c -0.76,-0.18 -1.25,-0.32 -1.25,-0.64 a 0.36,0.36 0 0 1 0.09,-0.26 1.15,1.15 0 0 1 0.79,-0.21 h 0.25 a 5.17,5.17 0 0 1 2.34,0.92 l -0.13,-2.36 -0.15,-0.05 v 0 l -0.36,-0.09 a 13.27,13.27 0 0 0 -1.46,-0.24 h -0.46 c -1.77,0 -2.81,0.84 -2.92,2.37 a 2,2 0 0 0 1,1.9 9.32,9.32 0 0 0 2,0.8 h 0.14 c 0.39,0.12 0.84,0.36 0.77,0.82 0,0.25 -0.12,0.51 -0.85,0.51 h -0.35 a 3.51,3.51 0 0 1 -1.74,-0.85 L 162,22 l -0.4,-0.3 -0.42,-0.32 0.17,3 0.15,0.05 v 0 l 0.36,0.09 a 15.39,15.39 0 0 0 1.6,0.24 h 0.44 c 1.94,0 3.22,-1 3.26,-2.46 0.04,-1.46 -0.79,-2.38 -2.45,-2.8 m -23.2,3.17 h -1.8 v -1.2 h 1.69 a 1.56,1.56 0 0 1 0.6,0.06 0.83,0.83 0 0 1 0.27,0.24 l 0.08,0.12 v -2.55 h -0.07 l -0.2,0.11 a 1.23,1.23 0 0 1 -0.5,0.05 h -1.87 v -1 h 1.87 a 1.1,1.1 0 0 1 0.86,0.24 l 0.47,0.35 -0.25,-2.52 h -6.38 l 0.17,0.1 0.7,0.44 c 0.24,0.16 0.34,0.27 0.34,0.79 v 5.32 c 0,0.52 -0.08,0.61 -0.33,0.77 l -0.75,0.44 -0.18,0.11 h 6.61 l 0.6,-2.66 c 0,0 -0.54,0.38 -0.69,0.47 a 1.92,1.92 0 0 1 -1.24,0.25 m -12.41,-6 h -4.51 l 0.17,0.1 0.7,0.44 c 0.24,0.16 0.33,0.27 0.33,0.79 v 1.93 l -3.34,-3.26 h -5.24 a 0.69,0.69 0 0 0 -0.33,0.1 v 0 0.05 l 0.18,0.26 a 0.59,0.59 0 0 1 0.09,0.35 v 4.07 0 0 c 0,0.85 -0.39,1.29 -1.2,1.29 -0.81,0 -1.24,-0.45 -1.24,-1.33 V 17.4 a 0.59,0.59 0 0 1 0.09,-0.35 3,3 0 0 1 0.19,-0.26 v -0.05 0 a 0.69,0.69 0 0 0 -0.33,-0.1 h -3.35 l 0.17,0.1 0.7,0.44 c 0.24,0.16 0.33,0.27 0.33,0.79 v 3.29 a 4.53,4.53 0 0 0 0.25,1.68 2.5,2.5 0 0 0 0.57,0.79 3.54,3.54 0 0 0 2.64,1 3.23,3.23 0 0 0 3.17,-1.82 3.7,3.7 0 0 0 0.25,-1.59 v -3.38 c 0,-0.52 0.09,-0.63 0.33,-0.79 l 0.48,-0.3 0.43,0.3 c 0.24,0.17 0.35,0.34 0.35,0.85 v 5.26 c 0,0.51 -0.1,0.62 -0.33,0.77 l -0.75,0.44 -0.19,0.11 h 4.54 l -0.19,-0.11 -0.75,-0.44 c -0.22,-0.15 -0.32,-0.26 -0.32,-0.77 v -3.17 l 4.84,4.74 v -6.89 c 0,-0.51 0.09,-0.62 0.33,-0.79 0.24,-0.17 0.76,-0.44 0.77,-0.44 z m 25.67,0 z m 6.65,0 h -4.52 l 0.17,0.1 0.7,0.44 c 0.24,0.16 0.33,0.27 0.33,0.79 v 1.93 l -3.33,-3.26 h -2.65 l 0.15,0.1 0.65,0.44 c 0.23,0.17 0.34,0.34 0.34,0.85 v 5.26 c 0,0.51 -0.09,0.62 -0.33,0.77 l -0.75,0.44 -0.18,0.11 h 4.53 l -0.18,-0.11 -0.75,-0.44 c -0.23,-0.15 -0.33,-0.26 -0.33,-0.77 v -3.16 l 4.85,4.74 v -6.89 c 0,-0.51 0.08,-0.62 0.33,-0.79 0.25,-0.17 0.76,-0.44 0.76,-0.44 z m -25.19,7.5 -0.18,-0.27 c -0.06,-0.09 -0.1,-0.17 -0.1,-0.5 v -2.14 c 0,-0.32 0,-0.38 0.09,-0.48 0.09,-0.1 0.19,-0.27 0.19,-0.27 v -0.05 h -0.06 a 1,1 0 0 0 -0.32,-0.1 h -3.4 l 0.17,0.1 0.73,0.45 c 0.22,0.14 0.33,0.29 0.33,0.77 v 1.17 a 2.73,2.73 0 0 1 -0.83,0.11 c -1.36,0 -2.06,-0.73 -2.06,-2.19 a 1.94,1.94 0 0 1 2.21,-2.21 4.31,4.31 0 0 1 2.76,1 v -0.06 l -0.25,-2.31 v -0.17 h -0.17 -0.16 a 10.22,10.22 0 0 0 -1.41,-0.26 4.68,4.68 0 0 0 -0.7,-0.05 h -0.13 a 4.12,4.12 0 1 0 0,8.24 11.15,11.15 0 0 0 1.82,-0.19 L 135,24.63 v 0 l 0.91,-0.24 0.39,-0.12 z m 59.36,-3.54 a 4,4 0 0 1 -0.84,2.5 3.74,3.74 0 0 1 -0.85,0.78 4.34,4.34 0 0 1 -2.69,0.73 h -4.17 L 187.22,24.46 188,24 c 0.24,-0.14 0.33,-0.28 0.33,-0.77 v -4.6 c 0,-0.51 -0.14,-0.65 -0.34,-0.79 a 2.49,2.49 0 0 1 -1.11,-1.65 v -0.11 l 0.09,0.06 a 3,3 0 0 0 0.73,0.31 11.62,11.62 0 0 0 2.31,0.12 h 1.6 a 4.36,4.36 0 0 1 2,0.47 3.86,3.86 0 0 1 2.06,3.49 m -2.32,0 c 0,-1.3 -0.68,-2.05 -1.85,-2.05 h -0.9 v 4.1 h 0.9 c 1.17,0 1.85,-0.75 1.85,-2.05 m 46.27,-1.12 -0.32,-0.08 v 0 c -0.76,-0.18 -1.26,-0.32 -1.26,-0.64 a 0.36,0.36 0 0 1 0.1,-0.26 1.1,1.1 0 0 1 0.78,-0.21 h 0.26 a 5.21,5.21 0 0 1 2.34,0.92 l -0.13,-2.36 -0.16,-0.05 v 0 l -0.36,-0.09 a 13.27,13.27 0 0 0 -1.46,-0.24 3.62,3.62 0 0 0 -0.46,0 c -1.78,0 -2.81,0.84 -2.93,2.37 a 2.09,2.09 0 0 0 1,1.9 9.6,9.6 0 0 0 2,0.8 h 0.14 c 0.39,0.12 0.83,0.36 0.77,0.82 0,0.25 -0.13,0.51 -0.85,0.51 h -0.35 A 3.51,3.51 0 0 1 236.9,22 l -0.06,-0.05 -0.41,-0.3 -0.41,-0.32 0.16,3 0.16,0.05 v 0 l 0.36,0.09 a 15.39,15.39 0 0 0 1.6,0.24 h 0.44 c 1.94,0 3.22,-1 3.25,-2.46 0.03,-1.46 -0.78,-2.38 -2.44,-2.8 m -12.31,1.11 a 4.15,4.15 0 0 1 -4.36,4.13 4.11,4.11 0 1 1 0,-8.21 4.14,4.14 0 0 1 4.38,4.08 m -2.29,0 a 2,2 0 0 0 -2.11,-2.14 2,2 0 0 0 -2,2.2 2,2 0 0 0 2.06,2.16 2,2 0 0 0 2,-2.22 m -14.07,3.47 0.67,0.53 h -4.17 c 0,0 0.36,-0.34 0.52,-0.51 a 0.43,0.43 0 0 0 0.1,-0.53 l -0.13,-0.36 H 205 c 0,0.16 -0.1,0.29 -0.13,0.36 -0.12,0.28 -0.09,0.36 0.07,0.52 0.16,0.16 0.61,0.52 0.61,0.52 h -4.37 l -2,-2.42 v 0 a 1.85,1.85 0 0 0 -0.54,-0.55 0.4,0.4 0 0 0 -0.12,0 v 1.7 c 0,0.5 0.09,0.59 0.33,0.77 a 10.84,10.84 0 0 0 1,0.55 h -4.67 c 0,0 0.72,-0.4 0.94,-0.55 0.22,-0.15 0.33,-0.26 0.33,-0.77 V 18 c 0,-0.49 -0.11,-0.65 -0.34,-0.79 l -0.7,-0.44 -0.16,-0.1 H 199 a 4.73,4.73 0 0 1 1.43,0.15 2.14,2.14 0 0 1 1.57,2.07 2.23,2.23 0 0 1 -0.39,1.28 2.26,2.26 0 0 1 -0.73,0.68 c 0.83,1.11 1.49,1.94 1.89,2.39 0,0 2.42,-5.81 2.42,-5.81 a 0.45,0.45 0 0 0 0,-0.11 c 0,0 0,-0.09 -0.12,-0.2 l -0.56,-0.51 h 3.14 c 0,0 2.62,6.63 2.63,6.67 v 0 a 2,2 0 0 0 0.17,0.31 1.43,1.43 0 0 0 0.45,0.46 m -11.09,-5.17 c 0,-0.41 -0.27,-0.68 -1,-0.68 h -0.26 v 1.86 h 0.26 c 0.51,0 1,-0.11 1,-1.18 m 7.41,2.41 -0.72,-2 -0.78,2 z m 29.06,-4.68 h -4.52 l 0.17,0.1 0.7,0.44 c 0.24,0.16 0.33,0.27 0.33,0.79 v 1.93 l -3.33,-3.26 H 227 l 0.16,0.1 c 0,0 0.41,0.27 0.64,0.44 0.23,0.17 0.35,0.34 0.35,0.85 v 5.26 c 0,0.51 -0.1,0.62 -0.33,0.77 l -0.75,0.44 -0.18,0.11 h 4.53 l -0.19,-0.11 -0.75,-0.44 c -0.22,-0.15 -0.32,-0.26 -0.32,-0.77 v -3.17 l 4.84,4.74 v -6.89 c 0,-0.51 0.09,-0.62 0.33,-0.79 0.24,-0.17 0.77,-0.44 0.77,-0.44 z M 218,23.77 c -0.06,-0.09 -0.09,-0.17 -0.09,-0.5 v -2.15 c 0,-0.32 0,-0.39 0.09,-0.48 a 2.9,2.9 0 0 1 0.18,-0.27 v -0.05 h -0.06 a 0.8,0.8 0 0 0 -0.32,-0.1 h -3.4 l 0.17,0.1 0.72,0.45 c 0.22,0.14 0.33,0.29 0.33,0.77 v 1.17 a 2.63,2.63 0 0 1 -0.82,0.11 c -1.37,0 -2.06,-0.74 -2.06,-2.19 a 1.94,1.94 0 0 1 2.08,-2.18 4.33,4.33 0 0 1 2.77,1 V 19.39 L 217.34,17 v -0.17 h -0.17 -0.16 a 12.12,12.12 0 0 0 -1.41,-0.27 4.66,4.66 0 0 0 -0.69,0 h -0.14 a 4.12,4.12 0 1 0 0,8.24 11.15,11.15 0 0 0 1.81,-0.19 l 0.24,-0.06 v 0 l 0.92,-0.24 0.39,-0.12 -0.05,-0.07 c 0,0 -0.12,-0.16 -0.19,-0.27 m -35.35,-4.7 c -1.72,0.09 -3.19,1.54 -3.95,2.57 a 1.37,1.37 0 0 1 0.41,0.22 l 0.64,0.52 a 9.42,9.42 0 0 1 1.37,-2.16 1.82,1.82 0 0 1 2.35,-0.36 3.45,3.45 0 0 1 2.37,-0.47 3.39,3.39 0 0 0 -2.29,-1.06 c -0.81,0 -1.27,0.39 -1.39,0.21 -0.12,-0.18 0.55,-0.56 0.55,-0.56 -0.95,0 -1.65,1.16 -1.94,1 -0.29,-0.16 0.26,-0.62 0.26,-0.62 a 4.12,4.12 0 0 0 -1.76,2.24 4.3,4.3 0 0 1 3.38,-1.55 m -5.22,4.56 a 3.24,3.24 0 0 1 -2.3,1.71 c -1.74,0 -2.61,-2.45 -0.67,-4.46 a 1.16,1.16 0 0 0 -0.26,0 0.77,0.77 0 0 0 -0.42,0.12 l -0.86,0.73 0.24,-1.19 v -0.12 a 4.11,4.11 0 0 0 -1,0.69 l -0.77,0.84 0.08,-1.19 v -0.26 a 1.39,1.39 0 0 0 0.06,-0.49 v -0.06 a 3.65,3.65 0 0 0 -1.45,2.42 1.07,1.07 0 0 1 0.36,-0.33 c 0.1,0 0.2,0 0.1,0.33 a 4.36,4.36 0 0 0 0.87,4.48 c 0,0 -0.2,-0.53 -0.08,-0.69 0.12,-0.16 0.14,-0.08 0.25,0.06 a 3.76,3.76 0 0 0 0.25,0.31 v 0 a 3.45,3.45 0 0 0 2.69,1.19 4.67,4.67 0 0 0 4.2,-2.91 0.35,0.35 0 0 0 -0.1,-0.11 c -0.34,-0.31 -0.85,-0.73 -1.23,-1 M 172.21,17 a 1.93,1.93 0 0 1 0.06,-0.76 l 0.34,-1 0.42,1 a 1.6,1.6 0 0 0 0.69,0.7 3.18,3.18 0 0 1 0.23,-1.4 1.24,1.24 0 0 1 1.16,-1.37 c 1.11,0 1.4,1.34 0.89,2.3 a 5.75,5.75 0 0 0 0.92,1 l 0.32,0.29 0.08,0.09 a 4.23,4.23 0 0 0 0.84,-2.25 2.78,2.78 0 0 0 -2.86,-2.85 3.21,3.21 0 0 0 -2.66,0.94 2.75,2.75 0 0 0 -0.78,2.3 2.25,2.25 0 0 0 0.35,1.05"
       id="path997"
       inkscape:connector-curvature="0"
       style="display:inline;fill:#231f20" />
    <path
       class="cls-3"
       d="m 91.16,20.82 a 7.63,7.63 0 0 1 4.29,4.66 C 92.6,25.4 91.76,23.2 91.16,20.82"
       id="path999"
       inkscape:connector-curvature="0"
       style="display:inline;fill:#ffffff" />
  </g>
</svg>
