<?xml version="1.0" encoding="UTF-8" standalone="no"?>
<svg
   xmlns:dc="http://purl.org/dc/elements/1.1/"
   xmlns:cc="http://creativecommons.org/ns#"
   xmlns:rdf="http://www.w3.org/1999/02/22-rdf-syntax-ns#"
   xmlns:svg="http://www.w3.org/2000/svg"
   xmlns="http://www.w3.org/2000/svg"
   xmlns:sodipodi="http://sodipodi.sourceforge.net/DTD/sodipodi-0.dtd"
   xmlns:inkscape="http://www.inkscape.org/namespaces/inkscape"
   viewBox="0 0 319.34 79.51"
   version="1.1"
   id="svg28"
   sodipodi:docname="CharBox.svg"
   inkscape:version="0.92.4 (5da689c313, 2019-01-14)">
  <metadata
     id="metadata32">
    <rdf:RDF>
      <cc:Work
         rdf:about="">
        <dc:format>image/svg+xml</dc:format>
        <dc:type
           rdf:resource="http://purl.org/dc/dcmitype/StillImage" />
      </cc:Work>
    </rdf:RDF>
  </metadata>
  <sodipodi:namedview
     pagecolor="#ffffff"
     bordercolor="#666666"
     borderopacity="1"
     objecttolerance="10"
     gridtolerance="10"
     guidetolerance="10"
     inkscape:pageopacity="0"
     inkscape:pageshadow="2"
     inkscape:window-width="1920"
     inkscape:window-height="1017"
     id="namedview30"
     showgrid="false"
     inkscape:zoom="4.8568924"
     inkscape:cx="159.67"
     inkscape:cy="39.755001"
     inkscape:window-x="-8"
     inkscape:window-y="-8"
     inkscape:window-maximized="1"
     inkscape:current-layer="svg28" />
  <defs
     id="defs4">
    <style
       id="style2">.cls-1{fill:#fff;}.cls-2,.cls-3{fill:none;stroke:#231f20;stroke-miterlimit:10;}.cls-2{stroke-width:1.25px;}.cls-3{stroke-width:0.75px;}</style>
  </defs>
  <title
     id="title6">Asset 2</title>
  <g
     inkscape:groupmode="layer"
     id="layer1"
     inkscape:label="Frame"
     style="display:inline">
    <path
       class="cls-1"
       d="M 0.63,3.13 V 76.39 A 11.66,11.66 0 0 1 2.72,72.82 V 6.69 A 11.5,11.5 0 0 1 0.63,3.13"
       id="path8"
       inkscape:connector-curvature="0"
       style="display:inline;fill:#ffffff" />
    <path
       class="cls-1"
       d="m 318.72,3.13 v 73.26 a 11.78,11.78 0 0 0 -2.1,-3.57 V 6.69 a 11.61,11.61 0 0 0 2.1,-3.56"
       id="path10"
       inkscape:connector-curvature="0"
       style="display:inline;fill:#ffffff" />
    <rect
       class="cls-1"
       x="2.72"
       y="9.4399996"
       width="313.89001"
       height="60.639999"
       id="rect12"
       style="display:inline;fill:#ffffff" />
    <rect
       class="cls-2"
       x="2.72"
       y="9.4399996"
       width="313.89001"
       height="60.639999"
       id="rect14"
       style="display:inline;fill:none;stroke:#231f20;stroke-width:1.25px;stroke-miterlimit:10" />
    <path
       class="cls-2"
       d="M 0.63,3.13 V 76.39 A 11.66,11.66 0 0 1 2.72,72.82 V 6.69 A 11.5,11.5 0 0 1 0.63,3.13 Z"
       id="path16"
       inkscape:connector-curvature="0"
       style="display:inline;fill:none;stroke:#231f20;stroke-width:1.25px;stroke-miterlimit:10" />
    <path
       class="cls-2"
       d="m 2.72,62.19 c 0,0 1.07,10.33 8.4,10.33 h 22 c 0,0 7.17,-2.44 20.5,-2.44 M 2.72,17.32 C 2.72,17.32 3.79,7 11.12,7 h 22 c 0,0 7.17,2.45 20.5,2.45"
       id="path18"
       inkscape:connector-curvature="0"
       style="display:inline;fill:none;stroke:#231f20;stroke-width:1.25px;stroke-miterlimit:10" />
    <path
       class="cls-2"
       d="m 318.72,3.13 v 73.26 a 11.78,11.78 0 0 0 -2.1,-3.57 V 6.69 a 11.61,11.61 0 0 0 2.1,-3.56 z"
       id="path20"
       inkscape:connector-curvature="0"
       style="display:inline;fill:none;stroke:#231f20;stroke-width:1.25px;stroke-miterlimit:10" />
    <path
       class="cls-2"
       d="m 316.62,62.19 c 0,0 -1.07,10.33 -8.4,10.33 h -22 c 0,0 -7.17,-2.44 -20.5,-2.44 m 50.9,-52.76 c 0,0 -1.07,-10.32 -8.4,-10.32 h -22 c 0,0 -7.17,2.45 -20.5,2.45"
       id="path22"
       inkscape:connector-curvature="0"
       style="display:inline;fill:none;stroke:#231f20;stroke-width:1.25px;stroke-miterlimit:10" />
    <path
       class="cls-3"
       d="m 24.62,70.08 a 103.81,103.81 0 0 1 17.21,-1.92 h 235.68 a 103.81,103.81 0 0 1 17.21,1.92 m 0,-60.64 a 104.88,104.88 0 0 1 -17.21,1.92 H 41.83 A 104.88,104.88 0 0 1 24.62,9.44"
       id="path24"
       inkscape:connector-curvature="0"
       style="display:inline;fill:none;stroke:#231f20;stroke-width:0.75px;stroke-miterlimit:10" />
  </g>
</svg>
